<?xml version="1.0" standalone="no"?>
<!DOCTYPE svg PUBLIC "-//W3C//DTD SVG 20010904//EN"
 "http://www.w3.org/TR/2001/REC-SVG-20010904/DTD/svg10.dtd">
<svg version="1.0" xmlns="http://www.w3.org/2000/svg"
 width="1024.000000pt" height="309.000000pt" viewBox="0 0 1024.000000 309.000000"
 preserveAspectRatio="xMidYMid meet">
<metadata>
Created by potrace 1.15, written by Peter Selinger 2001-2017
</metadata>
<g transform="translate(0.000000,309.000000) scale(0.100000,-0.100000)"
fill="#000000" stroke="none">
<path d="M1816 2593 c-4 -9 -1 -20 5 -24 7 -4 9 -15 5 -24 -8 -21 -42 -15 -38
7 1 8 -4 21 -13 28 -12 10 -16 9 -21 -5 -4 -10 -1 -21 7 -26 11 -6 11 -11 2
-20 -17 -17 -46 -3 -38 20 13 41 -33 36 -225 -24 -284 -89 -523 -299 -644
-568 -18 -40 -38 -93 -46 -119 l-13 -48 -163 0 c-103 0 -164 -4 -164 -10 0 -6
60 -10 161 -10 l161 0 -6 -22 c-30 -111 -30 -309 -2 -444 75 -350 328 -640
676 -771 89 -34 255 -63 359 -63 517 1 961 370 1057 876 18 96 15 328 -5 392
l-10 32 3455 0 c2296 0 3454 3 3454 10 0 7 -1159 10 -3457 10 l-3458 0 -18 62
c-73 247 -270 480 -512 604 -82 42 -219 94 -252 94 -10 1 -35 7 -56 14 -20 8
-40 10 -42 5 -3 -4 -13 -5 -22 -2 -13 5 -15 2 -10 -16 6 -26 -18 -41 -36 -21
-9 10 -9 14 1 17 15 6 16 29 2 38 -17 10 -42 -15 -30 -30 11 -13 3 -25 -17
-25 -16 0 -17 37 -1 42 9 3 8 9 -4 21 -21 21 -34 21 -42 0z m142 -147 c205
-55 358 -221 387 -420 5 -36 4 -47 -6 -44 -7 2 -14 13 -15 24 -29 203 -167
361 -366 418 -68 20 -185 21 -254 2 -173 -46 -316 -192 -356 -363 -7 -29 -15
-53 -18 -53 -14 0 8 110 31 160 63 134 211 252 352 280 67 13 188 11 245 -4z
m-683 -143 c-6 -47 -8 -51 -22 -38 -8 9 -18 27 -22 42 -10 38 -27 39 -35 2 -7
-38 -33 -60 -63 -53 -29 8 -59 -36 -44 -63 13 -26 3 -184 -14 -203 -26 -31
-76 -142 -101 -227 -32 -110 -42 -269 -24 -380 49 -303 266 -566 562 -679 37
-14 68 -28 68 -30 0 -3 -5 -11 -12 -18 -9 -9 -19 -10 -38 -3 -36 13 -77 2 -85
-24 -10 -29 30 -69 67 -69 16 0 38 -5 50 -11 17 -9 19 -8 14 9 -8 23 2 72 14
72 4 0 15 -15 25 -32 9 -18 36 -48 59 -67 l41 -33 -55 7 c-143 19 -332 97
-450 185 -335 250 -483 631 -404 1041 47 243 206 488 409 629 58 40 60 41 63
19 2 -12 1 -47 -3 -76z m700 50 c152 -37 281 -168 315 -318 7 -27 21 -78 32
-112 17 -54 23 -63 43 -63 28 0 37 15 54 85 15 62 26 75 61 75 31 0 40 -15 46
-75 2 -22 5 -49 7 -60 3 -27 46 -33 64 -9 16 22 15 22 42 -49 57 -155 68 -296
36 -475 -16 -94 -79 -233 -146 -323 -54 -73 -176 -192 -227 -222 l-31 -18 10
30 c13 36 8 93 -8 98 -7 3 -11 -8 -10 -29 l2 -33 -75 -2 c-71 -2 -74 -2 -52
13 12 9 22 23 22 30 0 10 14 14 43 15 23 1 32 4 20 6 -18 3 -23 11 -23 37 0
18 -7 41 -15 52 -17 22 -21 209 -5 219 6 3 10 36 10 72 0 63 1 65 18 50 44
-40 94 2 123 101 9 30 20 47 36 53 23 8 24 12 21 96 l-3 88 -72 1 c-56 0 -77
5 -93 19 -24 22 -25 32 -4 96 24 72 15 195 -20 272 -31 72 -111 152 -187 189
-250 123 -553 -45 -576 -320 -3 -40 -9 -72 -13 -72 -4 0 -15 9 -25 20 -18 20
-18 20 -42 -6 -13 -15 -22 -33 -19 -41 3 -8 9 -68 12 -134 5 -92 4 -119 -6
-119 -9 0 -10 -10 -5 -37 4 -21 10 -82 13 -136 7 -99 20 -123 36 -67 8 25 13
30 30 26 12 -3 26 -6 33 -6 6 0 13 -23 16 -52 3 -29 11 -99 18 -154 12 -98 11
-103 -9 -136 -12 -20 -22 -52 -22 -72 l0 -36 -50 0 c-50 0 -50 0 -50 -32 0
-47 10 -78 25 -78 7 0 18 -7 25 -15 23 -28 -9 -17 -68 24 -74 50 -198 180
-245 257 -94 156 -132 302 -124 478 3 61 12 138 21 171 21 78 77 215 88 215 5
0 11 -14 15 -30 6 -32 32 -54 49 -42 16 11 34 61 34 93 0 42 17 69 43 69 37 0
50 -14 43 -47 -10 -44 18 -103 49 -103 17 0 25 5 25 18 0 10 5 23 11 29 7 7
16 36 20 65 24 149 164 308 315 358 93 31 184 32 299 3z m-50 -79 c148 -38
252 -149 280 -299 11 -62 4 -160 -15 -196 -12 -21 -18 -23 -39 -10 -12 8 -12
14 -4 33 9 18 12 19 12 6 1 -10 6 -18 12 -18 6 0 8 7 5 16 -4 9 -1 24 6 32 11
13 10 15 -4 9 -13 -4 -18 -1 -18 11 -1 15 -2 15 -15 -2 -14 -19 -15 -18 -15
16 0 20 5 40 10 43 6 3 10 -2 10 -11 0 -13 3 -15 11 -7 6 6 18 9 26 6 13 -5
13 -2 5 14 -8 15 -8 23 1 33 10 10 8 12 -11 7 -12 -3 -20 -1 -17 3 3 5 1 11
-4 15 -5 3 -14 -2 -19 -11 -8 -15 -11 -12 -17 15 -4 18 -4 35 -1 38 3 4 6 -1
6 -10 0 -9 5 -17 11 -17 6 0 8 7 5 16 -5 12 -2 15 10 10 13 -5 15 -1 9 21 -9
36 -14 41 -25 23 -7 -10 -10 -11 -10 -2 0 22 -20 13 -20 -10 -1 -20 -4 -18
-20 12 -20 39 -19 50 5 30 18 -15 20 0 3 19 -11 11 -10 13 5 8 23 -8 22 9 -3
35 -17 18 -20 19 -20 5 0 -10 -5 -14 -14 -11 -11 4 -13 0 -9 -18 l6 -23 -27
25 c-19 17 -23 26 -14 29 27 8 37 41 13 41 -8 0 -15 5 -15 10 0 6 -5 10 -11
10 -5 0 -7 -4 -4 -10 3 -5 -1 -10 -11 -10 -13 0 -14 -3 -4 -15 17 -21 -9 -21
-36 0 -14 11 -15 14 -3 9 13 -4 17 1 15 20 -1 18 -7 26 -18 26 -10 0 -18 6
-18 13 0 9 -3 8 -9 -2 -6 -10 -13 -11 -29 -2 -30 16 -73 13 -94 -6 -11 -9 -18
-11 -18 -5 0 7 5 12 12 12 6 0 8 3 5 6 -4 4 -14 1 -23 -6 -13 -11 -17 -11 -24
-1 -6 10 -10 9 -19 -5 -6 -11 -11 -13 -11 -6 0 24 -17 12 -17 -13 0 -16 5 -25
16 -25 11 -1 8 -5 -9 -15 -35 -20 -42 -18 -35 6 5 14 3 19 -3 15 -6 -3 -13 0
-16 6 -5 10 -7 10 -12 1 -3 -7 -12 -9 -20 -6 -16 6 -19 -13 -3 -23 8 -4 7 -9
-2 -15 -10 -6 -7 -9 10 -9 23 0 24 -1 6 -20 -22 -24 -35 -26 -35 -3 0 9 -3 13
-7 10 -3 -4 -12 -2 -20 4 -10 9 -13 8 -13 -5 0 -9 -4 -16 -9 -16 -5 0 -7 -9
-4 -20 6 -23 14 -25 31 -8 19 19 14 -4 -8 -37 -18 -27 -20 -28 -20 -8 0 27
-37 28 -51 1 -14 -25 15 -56 36 -38 11 9 12 6 3 -24 -10 -32 -12 -34 -24 -18
-12 15 -13 16 -14 0 0 -11 -6 -15 -18 -11 -14 3 -18 -1 -17 -17 2 -28 34 -48
46 -29 6 10 9 3 9 -19 0 -20 -4 -31 -10 -27 -5 3 -10 1 -10 -5 0 -7 -7 -10
-15 -7 -8 4 -17 2 -20 -3 -4 -6 -1 -10 4 -10 6 0 11 -9 11 -21 0 -14 5 -19 15
-16 23 10 27 -10 9 -45 l-17 -33 -15 35 c-84 206 38 445 260 504 70 19 121 19
193 0z m-51 -60 c31 -12 17 -123 -18 -146 -51 -34 -110 69 -76 133 11 19 60
26 94 13z m809 -97 c122 -173 176 -334 184 -553 9 -224 -47 -427 -168 -607
-52 -76 -178 -208 -239 -250 -25 -17 -47 -34 -50 -38 -10 -13 -136 -78 -211
-108 -60 -23 -212 -61 -247 -61 -3 0 13 17 34 38 22 21 49 61 62 92 20 49 27
57 63 68 228 71 436 266 534 501 47 113 60 188 59 341 -1 145 -11 193 -72 360
-26 70 -32 100 -32 168 0 82 12 128 30 117 5 -3 29 -34 53 -68z m-957 28 c3
-40 12 -55 39 -65 41 -15 27 -41 -30 -59 -64 -21 -112 -58 -150 -115 -16 -25
-33 -46 -37 -46 -14 0 -9 86 7 131 23 64 61 115 113 149 25 16 48 30 51 30 3
0 7 -11 7 -25z m268 -5 c69 -42 128 -163 121 -245 -2 -17 -3 -37 -4 -44 -1 -8
-18 12 -40 45 -39 59 -108 124 -133 124 -10 0 -10 -2 1 -9 8 -5 10 -14 6 -21
-5 -9 -32 -11 -93 -8 -51 3 -76 1 -63 -4 13 -4 66 -10 118 -11 96 -4 112 -10
113 -48 0 -19 -31 -48 -83 -77 -47 -27 -62 -27 -112 -2 -40 19 -40 19 -17 0
13 -11 43 -25 65 -32 53 -15 69 -28 34 -28 -40 0 -91 24 -115 54 -11 15 -23
22 -27 17 -3 -6 5 -20 17 -33 13 -12 28 -32 33 -42 27 -53 118 -88 170 -66 15
7 10 9 -22 9 -45 1 -59 17 -20 24 14 3 8 5 -15 6 -41 1 -94 18 -85 27 3 4 20
2 37 -4 24 -9 46 -7 103 8 39 11 83 20 96 20 20 0 21 -2 11 -15 -10 -12 -10
-15 4 -15 25 0 19 -19 -9 -26 -13 -3 -23 -11 -22 -17 1 -6 -20 -19 -48 -28
-32 -11 -51 -24 -54 -36 -3 -17 -2 -17 16 0 11 9 27 17 37 17 14 0 15 -4 6
-21 -7 -11 -10 -23 -7 -25 2 -3 12 11 21 30 19 40 73 86 102 86 10 0 32 -16
47 -35 l28 -35 -25 0 c-14 0 -28 5 -31 10 -4 6 -16 8 -28 4 -22 -7 -22 -6 -4
14 18 20 18 20 -2 15 -12 -3 -21 -9 -21 -14 0 -5 -7 -9 -15 -9 -9 0 -24 -20
-36 -46 -19 -45 -20 -46 -56 -41 -20 4 -56 22 -82 44 -84 70 -87 71 -61 36 13
-18 29 -33 36 -33 7 0 28 -18 47 -41 19 -22 59 -53 88 -67 33 -18 58 -39 70
-61 20 -37 33 -54 24 -29 -11 27 12 29 29 3 9 -14 21 -23 26 -20 14 8 12 26
-1 23 -6 -2 -14 3 -16 10 -3 9 2 13 13 12 36 -4 42 0 48 33 6 29 8 30 20 14
13 -17 14 -16 19 2 2 11 0 24 -5 29 -5 5 -8 29 -6 53 l3 44 58 3 58 3 -3 -73
-3 -73 -33 -3 c-18 -2 -30 -7 -27 -12 3 -5 0 -12 -6 -15 -7 -5 -10 2 -7 21 2
16 -2 29 -11 32 -10 3 -12 -3 -6 -26 5 -25 3 -30 -12 -28 -10 0 -21 8 -24 15
-4 11 -7 9 -11 -7 -5 -17 -2 -22 12 -22 11 0 23 -8 29 -17 8 -14 11 -15 25 -4
25 21 28 9 10 -42 -21 -62 -36 -73 -68 -52 -29 19 -34 43 -11 51 8 4 15 11 15
16 0 10 -24 7 -76 -7 -15 -5 -36 8 -86 53 -36 33 -83 65 -104 72 -22 7 -61 21
-87 31 -27 11 -46 15 -42 9 12 -19 -22 -10 -41 11 -19 22 -19 22 4 10 12 -6
22 -9 22 -7 0 3 -18 15 -41 26 -52 27 -87 99 -96 197 -7 85 1 80 21 -14 15
-74 44 -140 70 -162 23 -20 20 -8 -16 49 -30 48 -40 87 -53 190 l-5 45 11 -35
c15 -45 22 -25 11 28 -6 23 -7 43 -5 46 3 3 25 -10 48 -29 41 -34 62 -45 50
-26 -3 5 7 11 22 14 25 3 23 4 -14 11 -23 5 -52 19 -65 33 -17 18 -18 22 -5
17 10 -3 17 -1 17 6 0 6 5 8 10 5 6 -4 13 7 16 22 5 26 9 28 40 25 26 -3 36
-10 40 -28 4 -14 14 -24 24 -24 18 0 22 22 7 36 -12 13 -8 35 13 61 11 14 20
34 20 44 0 24 15 24 54 -1z m-309 -182 c-4 -13 -9 -53 -12 -91 -4 -54 -10 -71
-27 -83 -21 -16 -21 -16 6 -10 22 5 26 3 22 -9 -6 -15 -16 -19 -44 -16 -11 1
-11 -1 3 -9 24 -15 22 -22 -18 -63 -21 -22 -41 -34 -50 -31 -10 4 -15 0 -15
-14 0 -26 -17 -37 -34 -23 -10 9 -12 6 -9 -11 3 -17 -3 -26 -21 -34 -22 -10
-26 -9 -32 8 -5 16 7 32 53 74 32 29 65 54 73 54 8 0 22 5 30 11 12 8 9 9 -12
5 -22 -5 -28 -3 -28 11 0 12 -6 8 -19 -13 -22 -37 -41 -51 -41 -32 0 21 63
121 79 126 9 3 11 0 6 -8 -5 -9 -4 -11 3 -6 7 4 12 18 12 31 0 13 4 26 9 29 5
3 12 18 16 33 10 43 36 93 47 93 6 0 7 -9 3 -22z m420 -310 c-6 -21 -5 -22 8
-5 10 12 29 17 66 17 l51 0 0 -47 c0 -60 -20 -83 -72 -83 -26 0 -38 4 -38 14
0 8 -4 18 -10 21 -6 3 -7 -1 -4 -9 3 -9 3 -24 -1 -33 -7 -17 -8 -16 -15 2 -5
11 -9 48 -9 83 -1 50 2 62 15 62 11 0 14 -6 9 -22z m-395 5 c-1 -5 -7 -19 -15
-33 -23 -41 -19 -50 23 -49 20 1 29 3 19 6 -11 3 -16 10 -13 20 3 8 6 20 6 26
0 6 11 0 25 -13 19 -18 22 -26 13 -32 -8 -4 5 -8 31 -8 52 0 157 -26 185 -46
11 -8 31 -31 44 -52 13 -20 22 -30 19 -22 -3 8 -8 24 -12 35 -4 11 5 2 19 -20
25 -38 91 -195 84 -200 -2 -1 -18 -5 -35 -8 l-33 -6 0 52 c0 70 -11 132 -20
116 -6 -8 -12 -4 -20 12 -16 31 -51 69 -63 69 -6 0 -3 -8 5 -17 9 -10 18 -27
21 -38 7 -24 13 -342 7 -348 -3 -3 -33 -16 -68 -30 l-63 -25 6 46 7 47 -26
-30 c-29 -34 -33 -47 -11 -39 20 8 20 -20 -1 -40 -19 -19 -50 -20 -84 -3 -23
12 -25 20 -37 132 -6 66 -13 155 -14 197 -2 42 -7 74 -11 72 -4 -3 -8 -90 -8
-193 l0 -189 -44 -11 c-60 -15 -58 -15 -52 22 19 113 28 189 24 192 -3 3 -13
-49 -23 -115 -15 -100 -16 -122 -5 -135 12 -14 11 -18 -1 -26 -21 -13 -49 -11
-49 4 0 7 14 82 30 167 28 142 40 248 19 156 -13 -56 -23 -60 -16 -7 3 24 2
40 -3 35 -5 -5 -12 -63 -16 -128 -9 -158 -22 -201 -23 -78 -1 96 14 225 30
252 6 12 9 9 10 -10 1 -14 5 -3 8 24 7 54 30 76 32 29 1 -27 2 -26 13 9 17 55
30 59 23 8 -6 -48 -6 -49 19 38 5 16 29 15 47 -2 8 -8 21 -66 31 -135 26 -189
55 -301 76 -301 7 0 8 6 2 18 -5 9 -17 58 -26 107 -10 50 -26 129 -37 176 -23
105 -23 108 -3 83 9 -10 4 3 -10 30 -30 55 -31 60 -14 50 17 -11 48 -12 48 -3
0 5 11 3 25 -3 19 -8 34 -8 62 0 21 7 49 13 63 15 14 2 -2 7 -35 11 -33 4 -76
11 -95 16 l-35 8 34 1 c19 1 31 4 28 8 -6 6 -44 9 -130 12 -33 1 -37 4 -33 24
6 32 28 77 38 77 4 0 8 -3 8 -7z m287 -677 c3 -3 3 -12 -1 -21 -5 -13 -30 -15
-183 -13 -158 3 -178 5 -181 20 -3 15 8 18 70 21 90 5 288 0 295 -7z m-187
-121 c0 -73 -1 -75 -25 -75 -14 0 -25 5 -25 10 0 6 -11 3 -25 -6 -44 -29 -86
3 -82 62 2 28 5 29 54 32 l52 3 4 -38 4 -38 1 43 c2 40 1 42 -28 42 -20 0 -30
5 -30 15 0 8 -5 15 -11 15 -6 0 -9 -6 -6 -14 4 -10 -2 -16 -21 -18 -30 -3 -37
-22 -27 -74 8 -44 43 -63 86 -47 26 10 29 9 29 -8 0 -17 -8 -19 -85 -19 l-85
0 0 95 0 95 110 0 110 0 0 -75z m225 -134 c3 -6 2 -28 -1 -51 -4 -25 -10 -37
-14 -30 -4 7 -13 9 -20 5 -7 -4 -13 1 -17 14 -5 18 -13 21 -59 21 l-54 0 0
-45 c0 -40 3 -46 31 -60 28 -15 33 -15 55 0 13 8 24 22 24 30 0 8 9 15 20 15
17 0 19 -3 10 -19 -16 -31 -78 -77 -119 -90 -70 -21 -71 -20 -71 68 0 70 2 80
19 86 11 3 24 19 30 35 10 30 11 30 85 30 41 0 77 -4 81 -9z"/>
<path d="M5840 2441 c-23 -6 -25 -12 -28 -67 l-3 -60 -59 1 c-71 0 -105 -21
-137 -85 -38 -74 -26 -157 30 -209 30 -27 111 -40 144 -23 14 8 23 8 30 1 6
-6 23 -9 39 -7 l29 3 3 228 c3 243 5 233 -48 218z m-56 -191 c25 -9 26 -12 26
-99 l0 -89 -28 -7 c-81 -17 -135 63 -102 150 8 20 48 48 77 55 1 0 13 -4 27
-10z"/>
<path d="M6530 2441 c-23 -6 -25 -12 -28 -69 l-3 -62 -38 6 c-70 11 -148 -31
-172 -93 -14 -38 -11 -131 6 -164 30 -58 112 -85 179 -59 16 6 27 6 31 0 4 -6
19 -10 36 -10 l29 0 0 230 c0 127 -3 230 -7 229 -5 -1 -19 -4 -33 -8z m-56
-191 c25 -9 26 -12 26 -94 0 -76 -2 -86 -21 -97 -32 -17 -86 -2 -107 29 -38
58 -8 153 52 165 11 2 22 5 23 6 1 0 13 -3 27 -9z"/>
<path d="M7430 2441 c-23 -6 -25 -12 -28 -68 l-3 -62 -47 5 c-61 7 -128 -26
-154 -76 -25 -49 -24 -144 2 -188 32 -52 111 -76 174 -52 16 6 27 6 31 0 4 -6
19 -10 36 -10 l29 0 0 230 c0 127 -3 230 -7 229 -5 -1 -19 -4 -33 -8z m-56
-191 c25 -9 26 -12 26 -94 0 -76 -2 -86 -21 -97 -28 -14 -82 -4 -104 21 -29
32 -26 112 4 144 13 14 33 27 45 29 11 2 22 5 23 6 1 0 13 -3 27 -9z"/>
<path d="M3250 2258 c0 -156 2 -176 20 -206 52 -84 222 -84 284 1 19 26 21 42
21 200 l0 172 -37 3 -38 3 0 -161 c0 -158 -1 -161 -25 -185 -31 -32 -96 -34
-125 -5 -18 18 -20 33 -20 185 l0 165 -40 0 -40 0 0 -172z"/>
<path d="M8090 2209 l0 -220 38 3 37 3 3 76 3 77 57 6 c106 12 160 71 149 164
-9 82 -61 112 -197 112 l-90 0 0 -221z m182 140 c24 -13 33 -55 19 -85 -12
-27 -47 -44 -92 -44 l-29 0 0 76 0 76 43 -7 c23 -4 50 -11 59 -16z"/>
<path d="M9098 2388 c-23 -8 -28 -16 -28 -44 0 -27 -4 -34 -20 -34 -15 0 -20
-7 -20 -26 0 -17 6 -28 20 -31 18 -5 20 -14 20 -105 0 -97 1 -100 30 -129 26
-27 35 -30 82 -27 52 3 53 4 56 35 3 31 2 32 -31 26 -51 -8 -67 21 -67 119 l0
78 45 0 c43 0 45 1 45 29 0 28 -3 30 -42 33 -43 3 -43 3 -46 46 -3 45 -3 45
-44 30z"/>
<path d="M3763 2305 c-19 -8 -35 -10 -38 -4 -4 5 -20 9 -36 9 l-30 0 3 -157 3
-158 35 0 35 0 5 120 c5 115 6 120 30 132 26 13 67 9 85 -8 6 -6 12 -63 15
-127 l5 -117 35 0 35 0 3 101 c3 123 -10 169 -57 201 -38 26 -81 29 -128 8z"/>
<path d="M4620 2309 c-63 -25 -100 -85 -100 -162 0 -120 101 -183 233 -146 39
11 45 24 24 53 -11 15 -17 16 -35 7 -52 -28 -142 4 -142 50 0 18 8 19 115 19
l115 0 0 44 c0 103 -111 174 -210 135z"/>
<path d="M4998 2306 c-16 -8 -28 -11 -28 -5 0 5 -18 9 -40 9 l-41 0 3 -157 3
-158 35 0 35 0 5 113 c5 105 7 115 29 133 17 14 33 18 52 14 24 -5 30 -2 43
23 14 27 14 31 0 36 -27 10 -68 7 -96 -8z"/>
<path d="M5183 2304 c-51 -25 -62 -93 -22 -130 12 -10 42 -30 67 -44 37 -20
47 -31 47 -50 0 -21 -5 -26 -32 -28 -18 -2 -42 2 -54 8 -23 13 -33 7 -43 -26
-8 -27 27 -44 90 -44 77 0 124 36 124 95 0 43 -17 63 -80 95 -67 34 -77 45
-60 65 14 17 53 19 80 5 15 -8 21 -6 30 9 16 30 12 38 -21 50 -44 15 -88 13
-126 -5z"/>
<path d="M6003 2310 c-24 -10 -29 -26 -14 -48 6 -10 19 -11 45 -7 44 9 96 -10
96 -35 0 -13 -10 -17 -47 -19 -70 -2 -115 -29 -132 -78 -12 -34 -12 -46 -1
-72 23 -56 102 -78 164 -46 26 14 31 14 47 -1 25 -22 65 -15 61 11 -2 11 -7
67 -12 126 -4 58 -13 114 -20 126 -28 44 -127 67 -187 43z"/>
<path d="M6742 2313 c-13 -3 -41 -22 -62 -43 -81 -81 -61 -226 36 -266 66 -27
184 -11 184 26 0 29 -25 43 -51 30 -32 -18 -100 -6 -121 20 -37 45 -27 50 97
50 l115 0 0 49 c0 98 -85 155 -198 134z"/>
<path d="M7612 2303 c-51 -25 -76 -68 -80 -138 -4 -72 16 -119 67 -152 67 -45
171 -23 213 45 32 52 31 147 -3 196 -41 60 -129 83 -197 49z m102 -53 c50 -18
60 -136 15 -181 -22 -22 -67 -25 -93 -6 -39 29 -37 146 4 179 25 20 38 22 74
8z"/>
<path d="M8511 2302 c-67 -34 -98 -109 -80 -193 11 -50 46 -95 87 -110 69 -27
154 2 192 63 29 48 28 144 -3 189 -27 41 -79 69 -127 69 -19 0 -50 -8 -69 -18z
m115 -65 c22 -19 26 -32 27 -75 1 -85 -34 -124 -99 -108 -58 15 -70 144 -17
186 33 26 56 25 89 -3z"/>
<path d="M8898 2304 c-18 -9 -28 -11 -28 -4 0 7 -15 10 -37 8 -21 -2 -37 -6
-35 -10 1 -5 2 -75 2 -158 l0 -150 35 0 35 0 0 110 c0 106 1 112 26 136 20 21
31 25 58 20 29 -6 34 -3 45 20 10 22 9 29 -1 35 -20 13 -70 10 -100 -7z"/>
<path d="M9374 2306 c-17 -8 -44 -31 -59 -51 -24 -31 -29 -47 -29 -98 -1 -74
22 -121 74 -148 49 -26 118 -25 161 4 89 59 93 217 7 280 -34 25 -113 32 -154
13z m111 -71 c20 -20 25 -34 25 -78 0 -69 -26 -107 -74 -107 -50 0 -71 30 -71
102 0 53 3 62 28 84 36 31 62 30 92 -1z"/>
<path d="M4010 2280 c0 -23 4 -30 20 -30 18 0 20 -8 22 -127 l3 -128 35 0 35
0 3 158 3 157 -61 0 -60 0 0 -30z"/>
<path d="M4180 2302 c0 -24 138 -307 151 -310 11 -2 35 42 84 149 39 83 72
156 73 160 2 5 -14 9 -36 9 l-39 0 -38 -90 c-21 -49 -41 -88 -45 -85 -4 2 -22
43 -40 90 l-33 85 -38 0 c-22 0 -39 -4 -39 -8z"/>
<path d="M5400 2280 c0 -23 4 -30 20 -30 18 0 20 -8 22 -127 l3 -128 35 0 35
0 3 158 3 157 -61 0 -60 0 0 -30z"/>
<path d="M3263 1563 c-10 -4 -13 -107 -13 -469 l0 -465 83 3 82 3 3 213 2 212
160 0 160 0 0 70 0 70 -160 0 -160 0 0 110 0 110 220 0 220 0 0 75 0 75 -292
-1 c-161 0 -299 -3 -305 -6z"/>
<path d="M4033 1564 c-10 -5 -13 -108 -13 -470 l0 -464 295 0 295 0 0 75 0 75
-215 0 -216 0 3 138 3 137 153 3 152 3 0 69 0 70 -155 0 -156 0 3 108 3 107
213 3 212 2 0 75 0 74 -282 0 c-156 0 -289 -3 -295 -5z"/>
<path d="M4783 1564 c-10 -4 -13 -85 -13 -353 0 -414 2 -427 85 -508 67 -65
131 -87 255 -86 152 0 268 57 319 158 l26 49 3 373 3 373 -65 0 c-105 0 -96
32 -96 -334 0 -180 -4 -337 -10 -356 -38 -139 -267 -162 -334 -35 -20 38 -21
58 -24 381 l-3 341 -67 1 c-37 0 -73 -1 -79 -4z"/>
<path d="M5673 1564 c-10 -4 -13 -108 -13 -470 l0 -464 85 0 85 0 0 169 0 168
103 6 c137 6 198 28 264 92 59 58 83 121 83 221 0 139 -64 221 -205 261 -50
15 -377 28 -402 17z m332 -155 c21 -6 54 -26 72 -44 29 -29 33 -39 33 -88 0
-63 -28 -113 -75 -137 -17 -8 -68 -16 -117 -18 l-88 -4 0 151 0 151 68 0 c37
0 85 -5 107 -11z"/>
<path d="M7637 1563 c-4 -3 -7 -79 -7 -168 0 -176 6 -200 51 -193 18 2 23 8
20 23 -3 11 -6 93 -8 183 -4 161 -4 162 -27 162 -12 0 -26 -3 -29 -7z"/>
<path d="M7937 1563 c-4 -3 -7 -28 -7 -54 l0 -47 -39 5 c-98 13 -166 -101
-122 -205 20 -47 54 -61 142 -59 l74 2 3 183 2 182 -23 0 c-13 0 -27 -3 -30
-7z m-19 -152 c9 -5 12 -29 10 -82 l-3 -74 -36 -3 c-53 -5 -74 26 -70 106 2
45 61 77 99 53z"/>
<path d="M8495 1550 c-4 -11 -5 -35 -3 -53 3 -32 3 -32 -39 -29 -104 8 -168
-99 -124 -206 20 -47 54 -61 142 -59 l74 2 3 183 2 182 -24 0 c-16 0 -27 -7
-31 -20z m-10 -215 l0 -80 -28 -3 c-16 -2 -39 4 -53 13 -20 13 -24 24 -24 65
0 63 25 93 73 88 l32 -3 0 -80z"/>
<path d="M9228 1518 l-3 -52 -53 0 c-49 -1 -57 -5 -88 -38 -30 -34 -34 -44
-34 -94 0 -64 21 -108 59 -123 14 -6 60 -9 101 -8 l75 2 3 183 2 182 -29 0
c-29 0 -30 -2 -33 -52z m-10 -110 c7 -7 12 -39 12 -73 0 -34 -5 -66 -12 -73
-19 -19 -66 -14 -88 8 -28 28 -27 98 0 128 23 24 69 29 88 10z"/>
<path d="M6510 1379 l0 -180 28 3 c27 3 27 4 30 86 l3 82 64 0 c63 0 65 1 65
25 0 24 -2 25 -65 25 l-65 0 0 45 0 45 85 0 c84 0 85 0 85 25 l0 25 -115 0
-115 0 0 -181z"/>
<path d="M6827 1463 c-11 -3 -16 -10 -13 -20 3 -8 6 -18 6 -23 0 -4 19 -5 43
-3 32 4 48 1 60 -12 24 -24 12 -35 -36 -35 -63 0 -102 -35 -102 -90 0 -32 6
-47 24 -61 26 -21 81 -25 113 -8 14 8 23 8 31 0 6 -6 21 -11 32 -11 21 0 22 4
17 83 -6 124 -17 156 -57 173 -33 14 -81 17 -118 7z"/>
<path d="M7120 1452 c-91 -45 -92 -201 -1 -239 38 -16 125 -13 142 4 5 5 7 17
4 26 -5 12 -17 14 -58 10 -73 -7 -92 9 -92 77 0 42 4 55 24 71 25 21 62 25 90
9 14 -7 20 -4 29 14 9 20 7 25 -14 35 -36 16 -84 14 -124 -7z"/>
<path d="M7327 1464 c-13 -13 -8 -183 7 -219 12 -27 22 -35 52 -41 22 -4 50
-2 67 4 21 8 34 8 47 0 9 -6 25 -8 34 -5 14 5 16 25 16 137 l0 131 -27 -3 -28
-3 -3 -94 c-1 -52 -8 -101 -14 -108 -13 -17 -74 -17 -85 0 -4 6 -10 55 -13
107 -5 86 -7 95 -25 98 -12 2 -24 0 -28 -4z"/>
<path d="M8087 1463 c-11 -3 -16 -10 -13 -20 3 -8 6 -18 6 -23 0 -4 19 -5 43
-3 32 4 48 1 60 -12 27 -26 21 -32 -39 -37 -65 -6 -92 -27 -101 -80 -4 -30 -1
-41 20 -62 28 -28 81 -35 117 -16 13 7 27 7 44 -1 30 -14 65 -4 48 13 -7 7
-12 41 -12 78 0 92 -15 137 -50 155 -28 14 -84 18 -123 8z"/>
<path d="M8671 1452 c-90 -49 -92 -200 -3 -241 52 -25 156 -6 150 27 -3 14
-12 16 -56 14 -58 -4 -92 14 -92 49 0 16 11 19 93 21 l92 3 -2 40 c-6 83 -104
130 -182 87z"/>
<path d="M9400 1452 c-73 -40 -89 -149 -31 -214 22 -25 37 -32 79 -36 66 -6
116 12 102 38 -7 14 -19 16 -60 12 -55 -5 -90 14 -90 50 0 16 9 18 96 18 l97
0 -6 42 c-12 87 -108 133 -187 90z"/>
<path d="M8233 1050 c-23 -9 -23 -11 -23 -215 l0 -205 35 0 35 0 0 109 c0 118
3 126 57 137 24 5 36 1 52 -15 19 -19 21 -33 21 -126 l0 -105 35 0 35 0 0 113
c0 69 -5 122 -13 137 -25 50 -103 70 -171 44 -14 -5 -16 4 -16 65 0 75 -3 79
-47 61z"/>
<path d="M6517 1043 c-4 -3 -7 -98 -7 -210 l0 -203 130 0 130 0 0 30 0 30 -95
0 -95 0 0 65 0 65 70 0 70 0 0 30 0 30 -70 0 -70 0 0 50 0 50 95 0 95 0 0 35
0 35 -123 0 c-68 0 -127 -3 -130 -7z"/>
<path d="M7396 943 c-4 -5 -39 -8 -76 -8 -62 0 -71 -3 -99 -29 -48 -46 -51
-115 -6 -159 15 -15 15 -18 -5 -39 -13 -14 -18 -29 -14 -42 11 -35 19 -38 119
-40 50 -1 60 -4 63 -20 2 -10 -2 -22 -10 -27 -22 -14 -92 -10 -116 7 -21 15
-24 14 -42 -8 -11 -13 -19 -27 -20 -31 0 -16 71 -37 125 -37 88 0 135 33 135
95 0 62 -51 91 -139 79 -32 -4 -51 -3 -51 4 0 14 25 22 69 22 72 0 125 74 102
142 -9 25 -8 35 4 48 14 15 13 18 -3 33 -21 19 -25 20 -36 10z"/>
<path d="M6965 933 c-11 -3 -26 -10 -33 -16 -9 -7 -16 -7 -24 1 -7 7 -22 12
-35 12 -23 0 -23 0 -23 -150 l0 -150 35 0 35 0 0 109 c0 102 2 111 22 125 28
20 58 20 84 2 16 -12 19 -29 22 -125 l4 -111 34 0 34 0 0 100 c0 105 -12 151
-46 182 -21 18 -78 29 -109 21z"/>
<path d="M7594 930 c-68 -21 -114 -106 -100 -188 15 -97 122 -149 221 -108 33
14 34 17 24 40 -10 20 -15 23 -30 16 -10 -6 -35 -10 -57 -10 -44 0 -76 22 -87
58 -6 22 -6 22 104 22 121 0 130 5 115 67 -21 84 -104 129 -190 103z"/>
<path d="M7950 924 c-22 -10 -36 -11 -38 -4 -2 5 -15 10 -28 10 l-24 0 0 -150
0 -150 35 0 35 0 0 115 c0 125 5 135 64 135 47 0 56 -21 56 -141 l0 -109 35 0
35 0 0 118 c0 132 -8 154 -66 178 -42 17 -60 17 -104 -2z"/>
<path d="M8614 929 c-26 -7 -30 -13 -27 -33 5 -23 8 -24 52 -19 55 6 91 -8 91
-38 0 -11 -5 -17 -10 -14 -6 3 -31 3 -58 -1 -95 -14 -144 -106 -89 -169 29
-34 92 -44 137 -21 29 14 34 14 47 0 9 -8 25 -14 37 -12 16 2 20 9 18 28 -1
14 -6 71 -10 127 -9 114 -20 136 -81 153 -42 12 -65 11 -107 -1z"/>
<path d="M8998 926 c-16 -9 -30 -11 -33 -5 -4 5 -22 9 -41 9 l-34 0 0 -150 0
-150 34 0 34 0 4 106 c3 98 5 107 28 126 17 13 33 18 52 14 23 -5 30 -1 43 23
14 27 13 29 -8 35 -34 9 -49 7 -79 -8z"/>
<path d="M9380 931 c-14 -4 -25 -12 -24 -19 1 -7 2 -18 3 -25 1 -9 19 -13 61
-12 43 0 63 -4 70 -15 16 -25 12 -27 -47 -35 -105 -13 -158 -103 -100 -170 28
-33 91 -44 132 -22 25 13 31 12 55 -1 33 -19 65 -10 55 16 -5 9 -11 62 -14
118 -5 70 -12 109 -24 127 -25 39 -102 56 -167 38z"/>
<path d="M9130 904 c0 -17 6 -28 20 -31 19 -5 20 -14 20 -124 l0 -119 35 0 35
0 0 150 0 150 -55 0 c-53 0 -55 -1 -55 -26z"/>
</g>
</svg>
