<?xml version="1.0" standalone="no"?>
<!DOCTYPE svg PUBLIC "-//W3C//DTD SVG 20010904//EN"
 "http://www.w3.org/TR/2001/REC-SVG-20010904/DTD/svg10.dtd">
<svg version="1.0" xmlns="http://www.w3.org/2000/svg"
 width="296.000000pt" height="276.000000pt" viewBox="0 0 296.000000 276.000000"
 preserveAspectRatio="xMidYMid meet">
<metadata>
Created by potrace 1.15, written by Peter Selinger 2001-2017
</metadata>
<g transform="translate(0.000000,276.000000) scale(0.100000,-0.100000)"
fill="#000000" stroke="none">
<path d="M0 1385 l0 -1375 810 0 810 0 0 1375 0 1375 -810 0 -810 0 0 -1375z
m690 425 c0 -5 -13 -10 -29 -10 -57 0 -90 -19 -101 -58 -13 -47 -13 -568 0
-647 17 -105 72 -150 180 -150 84 0 142 31 183 96 25 41 29 61 38 175 6 71 9
215 7 321 -4 226 -10 241 -91 257 -87 17 -47 26 118 26 157 0 214 -11 123 -23
-29 -4 -50 -14 -65 -32 -22 -25 -23 -32 -23 -253 -1 -280 -12 -417 -39 -470
-25 -49 -90 -108 -150 -136 -39 -18 -64 -21 -171 -21 -106 0 -132 3 -171 21
-63 29 -113 76 -140 132 -23 46 -24 56 -29 385 -6 380 -1 361 -82 374 -93 14
-19 23 202 23 153 0 240 -4 240 -10z m726 -729 c96 -58 46 -201 -69 -201 -31
0 -46 7 -73 34 -28 28 -34 42 -34 76 0 34 6 48 34 76 40 40 92 46 142 15z"/>
<path d="M1770 1812 c0 -5 19 -12 42 -15 80 -11 78 3 78 -437 0 -440 2 -426
-78 -437 -23 -3 -42 -10 -42 -14 0 -5 104 -9 230 -9 147 0 230 4 230 10 0 6
-13 10 -30 10 -45 0 -78 20 -90 53 -5 16 -10 101 -10 187 l0 157 98 6 c166 11
248 48 299 134 24 41 28 59 28 120 0 63 -3 76 -30 114 -37 52 -81 83 -149 106
-41 13 -104 17 -313 21 -163 2 -263 0 -263 -6z m468 -69 c50 -37 67 -80 67
-168 0 -133 -45 -194 -150 -203 l-55 -4 0 202 0 202 55 -4 c34 -3 66 -13 83
-25z"/>
</g>
</svg>
